<svg width="24" height="24" viewBox="0 0 24 24" fill="none" xmlns="http://www.w3.org/2000/svg">
<path d="M7.6655 20.8635H16.3348C18.0248 20.8635 18.8656 19.9953 18.8656 18.2755V10.7681C18.8656 9.70128 18.7514 9.23844 18.0983 8.5604L13.5919 3.92207C12.9719 3.27684 12.4655 3.13644 11.5432 3.13644H7.6655C5.98388 3.13644 5.13471 4.01274 5.13471 5.73288V18.2755C5.13471 20.0035 5.98388 20.8635 7.6655 20.8635ZM7.73063 19.5325C6.88982 19.5325 6.44887 19.0774 6.44887 18.2509V5.75758C6.44887 4.93913 6.88982 4.46747 7.73899 4.46747H11.3635V9.2716C11.3635 10.3134 11.8859 10.8259 12.8981 10.8259H17.5515V18.2509C17.5515 19.0774 17.1185 19.5325 16.2697 19.5325H7.73063ZM13.0451 9.5771C12.7267 9.5771 12.5958 9.44516 12.5958 9.11426V4.72394L17.2979 9.57746L13.0451 9.5771Z" fill="#404960"/>
<path d="M5 18.2757V5.73318C5 4.85213 5.21762 4.16214 5.67354 3.6937C6.12976 3.22499 6.80292 3.00004 7.66529 3H11.543C12.0092 3 12.3853 3.03582 12.7265 3.15947C13.0697 3.28395 13.3674 3.49425 13.6869 3.8266L18.1944 8.46459C18.5293 8.81229 18.7351 9.11556 18.8539 9.47546C18.9714 9.83147 19 10.2325 19 10.7681V18.2757C19 19.1559 18.7848 19.8433 18.33 20.3098C17.8745 20.7767 17.2009 21 16.3347 21H7.66529C6.80362 21 6.13087 20.7789 5.67441 20.3134C5.21811 19.8479 5.00002 19.1604 5 18.2757ZM6.31471 18.2509V5.75799C6.31471 5.32487 6.43168 4.96304 6.68035 4.7099C6.92918 4.45665 7.29038 4.33164 7.73877 4.33159H11.4975V9.27169C11.4975 9.77091 11.6227 10.1188 11.8456 10.3428C12.0687 10.567 12.4126 10.6901 12.8979 10.6901H17.6862V18.2509C17.6862 18.6871 17.5714 19.0475 17.324 19.2981C17.0767 19.5486 16.7169 19.6684 16.27 19.6684H7.7309C7.28751 19.6684 6.92767 19.5483 6.67948 19.2981C6.43127 19.0478 6.31472 18.6877 6.31471 18.2509ZM17.6179 9.71379L13.0449 9.7129C12.872 9.71287 12.7155 9.67812 12.6057 9.56583C12.4963 9.45364 12.4614 9.29296 12.4614 9.11399V4.39095L17.6179 9.71379ZM12.73 9.11399C12.73 9.26593 12.7608 9.33796 12.7964 9.37446C12.8316 9.41049 12.8999 9.44088 13.0449 9.44091H16.9768L12.73 5.05631V9.11399ZM6.58326 18.2509C6.58326 18.6404 6.68695 18.9211 6.86929 19.1049C7.05178 19.2889 7.33348 19.3964 7.7309 19.3964H16.27C16.6715 19.3964 16.953 19.2893 17.1342 19.1058C17.3155 18.9222 17.4167 18.6411 17.4167 18.2509V10.9621H12.8979C12.3712 10.9621 11.9478 10.8284 11.6567 10.536C11.3654 10.2433 11.2289 9.81405 11.2289 9.27169V4.60358H7.73877C7.33845 4.60362 7.05491 4.71434 6.87104 4.90126C6.687 5.08857 6.58326 5.37271 6.58326 5.75799V18.2509ZM5.26942 18.2757C5.26944 19.1187 5.47646 19.7255 5.8651 20.122C6.25357 20.5181 6.84586 20.7271 7.66529 20.7271H16.3347C17.1585 20.7271 17.7509 20.5157 18.1384 20.1185C18.526 19.721 18.7314 19.1147 18.7315 18.2757V10.7681C18.7315 10.2368 18.7022 9.87302 18.5994 9.5614C18.4978 9.25376 18.32 8.98533 18.0019 8.65507L13.4962 4.01708C13.1963 3.70492 12.9305 3.52243 12.6355 3.41551C12.3379 3.3077 11.9989 3.27287 11.543 3.27287H7.66529C6.84628 3.27291 6.2538 3.4857 5.8651 3.88507C5.47603 4.28483 5.26942 4.89409 5.26942 5.73318V18.2757Z" fill="#404960"/>
</svg>
