<svg width="24" height="24" viewBox="0 0 24 24" fill="none" xmlns="http://www.w3.org/2000/svg">
<path d="M12 3C13.8565 3 15.637 3.73713 16.9497 5.04922C18.2625 6.36131 19 8.14088 19 9.99646C19 12.9529 16.9215 16.1749 12.8185 19.6968C12.5903 19.8927 12.2994 20.0003 11.9987 20C11.6979 19.9997 11.4072 19.8916 11.1794 19.6954L10.908 19.46C6.98656 16.0299 5 12.8869 5 9.99646C5 8.14088 5.7375 6.36131 7.05025 5.04922C8.36301 3.73713 10.1435 3 12 3ZM12 7.30551C11.286 7.30551 10.6012 7.58902 10.0963 8.09367C9.59135 8.59832 9.30769 9.28278 9.30769 9.99646C9.30769 10.7101 9.59135 11.3946 10.0963 11.8992C10.6012 12.4039 11.286 12.6874 12 12.6874C12.714 12.6874 13.3988 12.4039 13.9037 11.8992C14.4087 11.3946 14.6923 10.7101 14.6923 9.99646C14.6923 9.28278 14.4087 8.59832 13.9037 8.09367C13.3988 7.58902 12.714 7.30551 12 7.30551Z" fill="black"/>
</svg>
