<svg fill="none" height="25"
     viewBox="0 0 126 126" width="25" xmlns="http://www.w3.org/2000/svg">
    <path d="M92.6471 0H33.3529C14.9326 0 0 14.9326 0 33.3529V92.6471C0 111.067 14.9326 126 33.3529 126H92.6471C111.067 126 126 111.067 126 92.6471V33.3529C126 14.9326 111.067 0 92.6471 0Z"
          fill="black"></path>
    <path fill="white" d="M86.3181 89.4661V36H92.9271V89.4661H86.3181Z"></path>
    <path fill="white"
          d="M54.0894 90.58C49.9557 90.58 46.3046 89.726 43.1363 88.0181C39.9679 86.3101 37.4803 83.9215 35.6733 80.8521C33.8911 77.758 33 74.1317 33 69.9733V36.0371L39.6833 36V69.4163C39.6833 71.9411 40.1041 74.1441 40.9457 76.0253C41.812 77.8818 42.9506 79.4289 44.3616 80.6665C45.7725 81.9041 47.3195 82.8324 49.0027 83.4512C50.7107 84.0453 52.4062 84.3423 54.0894 84.3423C55.7974 84.3423 57.5053 84.0329 59.2133 83.4141C60.9212 82.7952 62.4682 81.8794 63.8544 80.6665C65.2653 79.4289 66.3916 77.8694 67.2332 75.9882C68.0748 74.107 68.4956 71.9164 68.4956 69.4163V36H75.1788V69.9733C75.1788 74.107 74.2754 77.7209 72.4684 80.815C70.6862 83.9091 68.2109 86.3101 65.0425 88.0181C61.8742 89.726 58.2231 90.58 54.0894 90.58Z"></path>
</svg>
