<svg width="24" height="24" viewBox="0 0 24 24" fill="none" xmlns="http://www.w3.org/2000/svg">
<path fill-rule="evenodd" clip-rule="evenodd" d="M3.87868 1.87868C4.44129 1.31607 5.20435 1 6 1H14.5C14.7652 1 15.0196 1.10536 15.2071 1.29289L20.7071 6.79289C20.8946 6.98043 21 7.23478 21 7.5V20C21 20.7957 20.6839 21.5587 20.1213 22.1213C19.5587 22.6839 18.7957 23 18 23H6C5.20435 23 4.44129 22.6839 3.87868 22.1213C3.31607 21.5587 3 20.7957 3 20V4C3 3.20435 3.31607 2.44129 3.87868 1.87868ZM6 3C5.73478 3 5.48043 3.10536 5.29289 3.29289C5.10536 3.48043 5 3.73478 5 4V20C5 20.2652 5.10536 20.5196 5.29289 20.7071C5.48043 20.8946 5.73478 21 6 21H18C18.2652 21 18.5196 20.8946 18.7071 20.7071C18.8946 20.5196 19 20.2652 19 20V7.91421L14.0858 3H6Z" fill="#3C3E4B"/>
<path fill-rule="evenodd" clip-rule="evenodd" d="M14 1C14.5523 1 15 1.44772 15 2V7H20C20.5523 7 21 7.44772 21 8C21 8.55228 20.5523 9 20 9H14C13.4477 9 13 8.55228 13 8V2C13 1.44772 13.4477 1 14 1Z" fill="#3C3E4B"/>
<path fill-rule="evenodd" clip-rule="evenodd" d="M12 11C12.5523 11 13 11.4477 13 12V18C13 18.5523 12.5523 19 12 19C11.4477 19 11 18.5523 11 18V12C11 11.4477 11.4477 11 12 11Z" fill="#3C3E4B"/>
<path fill-rule="evenodd" clip-rule="evenodd" d="M8 16C8.55228 16 9 16.4477 9 17V18C9 18.5523 8.55228 19 8 19C7.44772 19 7 18.5523 7 18V17C7 16.4477 7.44772 16 8 16Z" fill="#3C3E4B"/>
<path fill-rule="evenodd" clip-rule="evenodd" d="M16 14C16.5523 14 17 14.4477 17 15V18C17 18.5523 16.5523 19 16 19C15.4477 19 15 18.5523 15 18V15C15 14.4477 15.4477 14 16 14Z" fill="#3C3E4B"/>
</svg>