<svg width="1266" height="519" viewBox="0 0 1266 519" fill="none" xmlns="http://www.w3.org/2000/svg" xmlns:xlink="http://www.w3.org/1999/xlink">
<g filter="url(#filter0_d_15_34)">
<path fill-rule="evenodd" clip-rule="evenodd" d="M828.555 30C828.555 13.4315 841.986 0 858.555 0H1232C1248.57 0 1262 13.4315 1262 30V272V481C1262 481.065 1262 481.129 1262 481.194C1261.9 497.673 1248.5 511 1232 511H858.555H369.467C352.898 511 339.467 497.569 339.467 481V417.401C339.467 400.832 326.035 387.401 309.467 387.401H34C17.4314 387.401 4 373.969 4 357.401L4.00001 206.175C4.00002 189.607 17.4315 176.175 34 176.175L798.555 176.175C815.123 176.175 828.555 162.744 828.555 146.175V30Z" fill="gray" shape-rendering="crispEdges"/>
</g>
</svg>
